<?xml version="1.0" encoding="UTF-8" standalone="no"?>
<svg width="220px" height="32px" viewBox="0 0 220 32" version="1.1" xmlns="http://www.w3.org/2000/svg" xmlns:xlink="http://www.w3.org/1999/xlink">
    <!-- Generator: Sketch 3.6.1 (26313) - http://www.bohemiancoding.com/sketch -->
    <title>Group</title>
    <desc>Created with Sketch.</desc>
    <defs></defs>
    <g id="Page-1" stroke="none" stroke-width="1" fill="none" fill-rule="evenodd">
        <g id="Desktop-HD-Copy-4" transform="translate(-355.000000, -3974.000000)" fill="#D4312A">
            <g id="Group-9" transform="translate(355.000000, 3921.000000)">
                <g id="Group" transform="translate(0.000000, 53.000000)">
                    <path d="M7.74690325,8.05490459 L7.74690325,15.7750251 L22.4338801,15.7750251 C26.1248745,15.7750251 26.953465,13.6658855 26.953465,11.7450619 C26.953465,10.1640442 26.1248745,8.05490459 22.4338801,8.05490459 L7.74690325,8.05490459 L7.74690325,8.05490459 Z M0.215098761,1.27636425 L23.5261132,1.27636425 C31.0202544,1.27636425 34.748075,6.0587546 34.748075,11.5567459 C34.748075,18.1469702 29.3630733,22.1760964 23.5261132,22.1760964 L7.74690325,22.1760964 L7.74690325,31.4027452 L0.215098761,31.4027452 L0.215098761,1.27636425 L0.215098761,1.27636425 Z" id="Fill-15"></path>
                    <path d="M42.2037161,19.5028457 L49.096083,19.5028457 L45.8570472,9.44844325 L42.2037161,19.5028457 L42.2037161,19.5028457 Z M51.0537328,25.6411115 L40.020087,25.6411115 L37.9486106,31.4027452 L29.9271845,31.4027452 L42.0154001,1.27636425 L49.7731838,1.27636425 L61.1089722,31.4027452 L52.9368932,31.4027452 L51.0537328,25.6411115 L51.0537328,25.6411115 Z" id="Fill-16"></path>
                    <path d="M69.8828256,8.05490459 L69.8828256,15.7750251 L74.7782056,15.7750251 C77.7159357,15.7750251 78.9211584,13.6658855 78.9211584,11.7450619 C78.9211584,10.1640442 77.7159357,8.05490459 74.7782056,8.05490459 L69.8828256,8.05490459 L69.8828256,8.05490459 Z M62.3510211,1.27636425 L76.6237027,1.27636425 C83.3645798,1.27636425 86.7166053,6.0587546 86.7166053,11.5567459 C86.7166053,16.0010044 84.4568129,19.2768664 81.4437563,20.9340475 L86.7166053,31.4027452 L78.2432206,31.4027452 L74.0626046,22.1760964 L69.8828256,22.1760964 L69.8828256,31.4027452 L62.3510211,31.4027452 L62.3510211,1.27636425 L62.3510211,1.27636425 Z" id="Fill-17"></path>
                    <path d="M88.4474389,10.4653498 C88.4474389,4.10110479 93.5319719,0.673752929 100.084533,0.673752929 C103.88768,0.673752929 108.068296,1.65299632 110.441078,3.00887178 L109.009876,9.41078005 C106.486441,7.90425176 102.720957,7.11332441 99.8208905,7.11332441 C97.4857717,7.11332441 95.903917,8.01724138 95.903917,9.59909608 C95.903917,14.4944761 111.344158,11.7450619 111.344158,21.8756277 C111.344158,27.2606294 107.503348,32.0053565 99.4819217,32.0053565 C96.0545698,32.0053565 92.1760964,31.5533981 89.0500502,30.084533 L89.3513559,23.193003 C92.4774021,24.6995313 95.903917,25.5657851 99.7079009,25.5657851 C103.021426,25.5657851 103.850017,24.3982256 103.850017,23.004687 C103.850017,18.4859391 88.4474389,21.1223636 88.4474389,10.4653498" id="Fill-18"></path>
                    <path d="M129.796619,25.6787747 C135.708905,25.6787747 139.964848,22.6657181 139.964848,16.0386676 C139.964848,10.0133914 135.708905,7.00033478 129.834282,7.00033478 C123.959659,7.00033478 119.703716,9.93806495 119.703716,16.2646468 C119.703716,22.6280549 123.959659,25.6787747 129.796619,25.6787747 L129.796619,25.6787747 Z M129.909608,0.673752929 C140.266153,0.673752929 147.722631,6.0210914 147.722631,16.1893204 C147.722631,26.7710077 139.663542,32.0053565 129.871945,32.0053565 C120.005022,32.0053565 111.945932,26.6956813 111.945932,16.2261466 C111.945932,6.36006026 119.289421,0.673752929 129.909608,0.673752929 L129.909608,0.673752929 Z" id="Fill-19"></path>
                    <path d="M158.793103,10.2770338 L156.909943,10.2770338 L156.909943,31.4027452 L149.378139,31.4027452 L149.378139,1.27636425 L159.960663,1.27636425 L179.881989,20.293773 L181.765149,20.293773 L181.765149,1.27636425 L189.296953,1.27636425 L189.296953,31.4027452 L180.183294,31.4027452 L158.793103,10.2770338" id="Fill-20"></path>
                    <path d="M192.045531,10.4653498 C192.045531,4.10110479 198.070807,0.673752929 206.129896,0.673752929 C211.251255,0.673752929 216.560931,1.65299632 218.933713,3.00887178 L217.502511,9.41078005 C214.979913,7.90425176 209.89538,7.11332441 205.866254,7.11332441 C201.535822,7.11332441 199.502009,8.01724138 199.502009,9.59909608 C199.502009,14.7957817 219.83763,10.7666555 219.83763,21.8756277 C219.83763,27.2606294 215.243555,32.0053565 205.527285,32.0053565 C201.158353,32.0053565 195.773351,31.5533981 192.647305,30.084533 L192.948611,23.193003 C196.074657,24.6995313 200.631068,25.5657851 205.753264,25.5657851 C210.686307,25.5657851 212.343488,24.3982256 212.343488,23.004687 C212.343488,18.1469702 192.045531,22.0262805 192.045531,10.4653498" id="Fill-21"></path>
                </g>
            </g>
        </g>
    </g>
</svg>