<?xml version="1.0" encoding="UTF-8" standalone="no"?>
<svg width="50px" height="38px" viewBox="0 0 50 38" version="1.1" xmlns="http://www.w3.org/2000/svg" xmlns:xlink="http://www.w3.org/1999/xlink">
    <!-- Generator: Sketch 3.6.1 (26313) - http://www.bohemiancoding.com/sketch -->
    <title>➜</title>
    <desc>Created with Sketch.</desc>
    <defs></defs>
    <g id="Page-1" stroke="none" stroke-width="1" fill="none" fill-rule="evenodd">
        <g id="Desktop-HD-Copy-4" transform="translate(-1252.000000, -3373.000000)" fill="#FFFFFF">
            <g id="ORANGE" transform="translate(-2.000000, 2700.000000)">
                <g id="Group-3-Copy-3" transform="translate(759.000000, 270.000000)">
                    <path d="M544.68457,421.920898 L530.014648,438.40332 C529.486,438.98861 528.881839,439.43701 528.202148,439.748535 C527.522458,440.06006 526.805017,440.21582 526.049805,440.21582 C524.614902,440.21582 523.40658,439.74382 522.424805,438.799805 C521.443029,437.85579 520.952148,436.694668 520.952148,435.316406 C520.952148,434.561194 521.098469,433.834313 521.391113,433.135742 C521.683758,432.437171 522.103838,431.81413 522.651367,431.266602 L526.644531,427.273438 L500.419922,427.273438 C498.928378,427.273438 497.668137,426.763677 496.63916,425.744141 C495.610184,424.724604 495.095703,423.450203 495.095703,421.920898 C495.095703,420.429355 495.610184,419.169113 496.63916,418.140137 C497.668137,417.11116 498.928378,416.59668 500.419922,416.59668 L526.644531,416.59668 L522.651367,412.008789 C522.084958,411.404619 521.660158,410.776859 521.376953,410.125488 C521.093749,409.474118 520.952148,408.827477 520.952148,408.185547 C520.952148,406.958327 521.457189,405.896326 522.467285,404.999512 C523.477381,404.102697 524.671543,403.654297 526.049805,403.654297 C526.823897,403.654297 527.555498,403.814777 528.244629,404.135742 C528.93376,404.456707 529.523761,404.900388 530.014648,405.466797 L544.68457,421.920898 Z" id="➜"></path>
                </g>
            </g>
        </g>
    </g>
</svg>