<?xml version="1.0" encoding="UTF-8" standalone="no"?>
<svg width="250px" height="199px" viewBox="0 0 250 199" version="1.1" xmlns="http://www.w3.org/2000/svg" xmlns:xlink="http://www.w3.org/1999/xlink">
    <!-- Generator: Sketch 3.6.1 (26313) - http://www.bohemiancoding.com/sketch -->
    <title>Group</title>
    <desc>Created with Sketch.</desc>
    <defs></defs>
    <g id="Page-1" stroke="none" stroke-width="1" fill="none" fill-rule="evenodd">
        <g id="Look-&amp;-Feel" transform="translate(-96.000000, -479.000000)">
            <g id="Group" transform="translate(96.000000, 479.000000)">
                <g id="Group-5-Copy-2">
                    <rect id="Rectangle-13-Copy" fill="#53524D" x="0" y="0" width="250" height="199"></rect>
                    <path d="M30.026,168 L43.326,168 L43.326,164.694 L39.64,164.694 L39.64,158.31 L42.528,158.31 C50.394,158.31 53.358,154.89 53.358,150.596 C53.358,146.15 50.318,142.996 42.452,142.996 L30.026,142.996 L30.026,146.302 L33.446,146.302 L33.446,164.694 L30.026,164.694 L30.026,168 Z M39.64,155.156 L39.64,146.15 L42.034,146.15 C45.72,146.15 46.746,147.67 46.746,150.558 C46.746,153.598 45.758,155.156 42.072,155.156 L39.64,155.156 Z M55.334,168 L66.81,168 L66.81,164.846 L63.504,164.846 L63.504,157.018 C64.15,154.814 65.404,153.674 66.43,153.598 C66.43,153.712 66.392,153.826 66.392,153.902 C66.392,155.65 67.684,156.6 69.356,156.6 C70.99,156.6 72.32,155.232 72.32,153.332 C72.32,151.47 70.914,149.836 68.71,149.836 C66.278,149.836 64.226,151.47 63.162,154.776 L63.162,150.216 L55.334,150.216 L55.334,153.37 L57.956,153.37 L57.956,164.846 L55.334,164.846 L55.334,168 Z M83.112,168.38 C88.584,168.38 92.726,164.504 92.726,158.994 C92.726,153.522 88.774,149.798 83.15,149.798 C77.64,149.798 73.498,153.712 73.498,159.184 C73.498,164.694 77.45,168.38 83.112,168.38 L83.112,168.38 Z M83.226,165.796 C80.794,165.796 79.578,163.934 79.578,159.108 C79.578,154.32 80.604,152.382 82.998,152.382 C85.468,152.382 86.646,154.282 86.646,159.07 C86.646,163.858 85.658,165.796 83.226,165.796 L83.226,165.796 Z M100.896,147.594 C102.91,147.594 104.316,146.188 104.316,144.326 C104.316,142.502 102.948,141.134 100.896,141.134 C98.882,141.134 97.514,142.578 97.514,144.44 C97.514,146.302 98.882,147.594 100.896,147.594 L100.896,147.594 Z M96.602,174.612 C101.276,174.612 103.974,171.838 103.974,166.594 L103.974,150.216 L95.234,150.216 L95.234,153.37 L98.388,153.37 L98.388,170.356 C98.388,171.914 97.97,172.446 97.21,172.484 C97.02,172.484 96.754,172.446 96.602,172.408 C96.754,172.104 96.868,171.648 96.868,171.23 C96.868,169.938 95.88,168.684 93.98,168.684 C92.27,168.684 91.244,169.938 91.244,171.344 C91.244,173.282 93.182,174.612 96.602,174.612 L96.602,174.612 Z M125.824,159.83 C126.09,154.054 123.278,149.798 117.274,149.798 C111.916,149.798 107.926,153.864 107.926,159.26 C107.926,164.732 111.536,168.38 117.464,168.38 C122.442,168.38 124.95,165.948 125.634,162.224 L122.67,162.224 C121.872,164.466 120.542,165.34 118.414,165.34 C115.602,165.34 113.93,163.972 113.702,159.83 L125.824,159.83 Z M117.16,152.382 C119.212,152.382 120.2,153.826 120.39,157.436 L113.74,157.436 C113.968,153.636 115.184,152.382 117.16,152.382 L117.16,152.382 Z M137.604,168.38 C142.088,168.38 144.748,165.72 145.584,161.882 L142.62,161.882 C141.898,163.934 140.492,165.15 138.44,165.15 C135.476,165.15 133.956,162.718 133.956,158.994 C133.956,154.89 135.818,152.534 138.326,152.534 C139.808,152.534 140.72,153.066 141.252,153.75 C140.454,154.054 139.656,154.928 139.656,156.144 C139.656,157.588 140.644,158.842 142.506,158.842 C144.482,158.842 145.546,157.474 145.546,155.574 C145.546,152.876 142.924,149.798 137.794,149.798 C132.018,149.798 127.99,153.674 127.99,159.412 C127.99,164.77 131.562,168.38 137.604,168.38 L137.604,168.38 Z M149.84,146.226 L149.84,150.406 L146.572,150.406 L146.572,153.37 L149.726,153.37 L149.726,162.3 C149.726,166.366 151.626,168.38 155.502,168.38 C159.074,168.38 160.936,166.518 161.772,162.186 L159.492,161.54 C158.808,164.01 158.276,164.884 157.136,164.884 C155.844,164.884 155.274,163.972 155.274,162.338 L155.274,153.37 L160.974,153.37 L160.974,150.406 L155.274,150.406 L155.274,145.58 L149.84,146.226 Z" id="Project" fill="#DFA643"></path>
                    <path d="M30.064,130 L39.868,130 L39.868,126.694 L36.714,126.694 L36.714,109.1 L37.056,109.1 L44.694,130.038 L47.24,130.038 L54.612,109.1 L54.954,109.1 L54.954,126.694 L51.8,126.694 L51.8,130 L64.492,130 L64.492,126.694 L61.148,126.694 L61.148,108.302 L64.492,108.302 L64.492,104.996 L52.674,104.996 L47.62,120.424 L47.506,120.424 L42.11,104.996 L30.064,104.996 L30.064,108.302 L33.332,108.302 L33.332,126.694 L30.064,126.694 L30.064,130 Z M72.092,130.342 C74.714,130.342 76.842,129.278 77.982,126.58 L78.172,126.58 C78.476,129.202 80.186,130.342 82.352,130.342 C84.898,130.342 86.304,129.012 87.026,126.086 L85.164,125.478 C84.822,126.77 84.404,127.188 83.986,127.188 C83.378,127.188 83.036,126.998 83.036,126.124 L83.036,118.03 C83.036,114.344 81.136,111.836 75.778,111.836 C71.408,111.836 67.342,113.394 67.342,116.662 C67.342,118.068 68.292,119.322 70.23,119.322 C71.788,119.322 72.928,118.296 72.928,116.966 C72.928,116.092 72.586,115.446 72.016,115.028 C72.738,114.724 73.536,114.572 74.296,114.572 C76.5,114.572 77.564,115.408 77.564,117.688 L77.564,119.246 C77.564,119.702 77.374,119.74 75.284,120.044 C70.914,120.614 69.09,121.374 67.912,122.552 C67.114,123.35 66.658,124.452 66.658,125.63 C66.658,128.518 68.938,130.342 72.092,130.342 L72.092,130.342 Z M74.676,127.112 C73.004,127.112 72.32,126.048 72.32,124.832 C72.32,123.122 73.156,122.248 75.854,121.792 C76.804,121.602 77.222,121.564 77.564,121.488 L77.564,123.236 C77.564,125.516 76.386,127.112 74.676,127.112 L74.676,127.112 Z M89.8,108.226 L89.8,112.406 L86.532,112.406 L86.532,115.37 L89.686,115.37 L89.686,124.3 C89.686,128.366 91.586,130.38 95.462,130.38 C99.034,130.38 100.896,128.518 101.732,124.186 L99.452,123.54 C98.768,126.01 98.236,126.884 97.096,126.884 C95.804,126.884 95.234,125.972 95.234,124.338 L95.234,115.37 L100.934,115.37 L100.934,112.406 L95.234,112.406 L95.234,107.58 L89.8,108.226 Z M121.074,121.83 C121.34,116.054 118.528,111.798 112.524,111.798 C107.166,111.798 103.176,115.864 103.176,121.26 C103.176,126.732 106.786,130.38 112.714,130.38 C117.692,130.38 120.2,127.948 120.884,124.224 L117.92,124.224 C117.122,126.466 115.792,127.34 113.664,127.34 C110.852,127.34 109.18,125.972 108.952,121.83 L121.074,121.83 Z M112.41,114.382 C114.462,114.382 115.45,115.826 115.64,119.436 L108.99,119.436 C109.218,115.636 110.434,114.382 112.41,114.382 L112.41,114.382 Z M123.278,130 L134.754,130 L134.754,126.846 L131.448,126.846 L131.448,119.018 C132.094,116.814 133.348,115.674 134.374,115.598 C134.374,115.712 134.336,115.826 134.336,115.902 C134.336,117.65 135.628,118.6 137.3,118.6 C138.934,118.6 140.264,117.232 140.264,115.332 C140.264,113.47 138.858,111.836 136.654,111.836 C134.222,111.836 132.17,113.47 131.106,116.776 L131.106,112.216 L123.278,112.216 L123.278,115.37 L125.9,115.37 L125.9,126.846 L123.278,126.846 L123.278,130 Z M146.952,109.594 C148.966,109.594 150.372,108.188 150.372,106.326 C150.372,104.502 149.004,103.134 146.952,103.134 C144.938,103.134 143.57,104.578 143.57,106.44 C143.57,108.302 144.9,109.594 146.952,109.594 L146.952,109.594 Z M141.556,130 L152.88,130 L152.88,126.846 L149.992,126.846 L149.992,112.216 L141.556,112.216 L141.556,115.37 L144.444,115.37 L144.444,126.846 L141.556,126.846 L141.556,130 Z M160.024,130.342 C162.646,130.342 164.774,129.278 165.914,126.58 L166.104,126.58 C166.408,129.202 168.118,130.342 170.284,130.342 C172.83,130.342 174.236,129.012 174.958,126.086 L173.096,125.478 C172.754,126.77 172.336,127.188 171.918,127.188 C171.31,127.188 170.968,126.998 170.968,126.124 L170.968,118.03 C170.968,114.344 169.068,111.836 163.71,111.836 C159.34,111.836 155.274,113.394 155.274,116.662 C155.274,118.068 156.224,119.322 158.162,119.322 C159.72,119.322 160.86,118.296 160.86,116.966 C160.86,116.092 160.518,115.446 159.948,115.028 C160.67,114.724 161.468,114.572 162.228,114.572 C164.432,114.572 165.496,115.408 165.496,117.688 L165.496,119.246 C165.496,119.702 165.306,119.74 163.216,120.044 C158.846,120.614 157.022,121.374 155.844,122.552 C155.046,123.35 154.59,124.452 154.59,125.63 C154.59,128.518 156.87,130.342 160.024,130.342 L160.024,130.342 Z M162.608,127.112 C160.936,127.112 160.252,126.048 160.252,124.832 C160.252,123.122 161.088,122.248 163.786,121.792 C164.736,121.602 165.154,121.564 165.496,121.488 L165.496,123.236 C165.496,125.516 164.318,127.112 162.608,127.112 L162.608,127.112 Z M175.072,130 L186.434,130 L186.434,126.846 L183.546,126.846 L183.546,103.78 L175.072,103.78 L175.072,107.01 L177.96,107.01 L177.96,126.846 L175.072,126.846 L175.072,130 Z M188.524,130.342 L191.45,130.342 L192.058,127.948 C193.198,129.24 195.06,130.38 197.834,130.38 C202.166,130.38 204.56,127.606 204.56,124.528 C204.56,120.994 201.938,119.74 198.062,118.714 C194.68,117.84 193.654,117.346 193.654,116.054 C193.654,115.028 194.414,114.344 195.896,114.344 C197.796,114.344 199.62,115.826 200.988,117.954 L203.914,117.954 L203.914,111.874 L200.95,111.874 L200.342,114.002 C199.24,112.672 197.568,111.798 195.25,111.798 C191.298,111.798 188.79,114.42 188.79,117.536 C188.79,120.728 190.88,122.096 195.136,123.198 C198.67,124.11 199.658,124.642 199.658,126.01 C199.658,127.112 198.936,127.834 197.34,127.834 C195.174,127.834 193.008,126.2 191.45,123.806 L188.524,123.806 L188.524,130.342 Z" id="Materials" fill="#DDC057"></path>
                    <path d="M47.088,88.694 L43.706,88.694 L43.706,92 L56.816,92 L56.816,88.694 L53.852,88.694 L45.91,66.844 L39.678,66.844 L31.622,88.694 L28.886,88.694 L28.886,92 L38.5,92 L38.5,88.694 L35.346,88.694 L36.942,84.02 L45.492,84.02 L47.088,88.694 Z M41.198,71.67 L41.35,71.67 L44.504,81.018 L37.968,81.018 L41.198,71.67 Z M69.66,65.628 C64.986,65.628 60.692,68.25 60.692,74.14 L60.692,74.406 L57.462,74.406 L57.462,77.37 L60.692,77.37 L60.692,88.846 L58.146,88.846 L58.146,92 L68.33,92 L68.33,88.846 L66.278,88.846 L66.278,77.37 L72.206,77.37 L72.206,88.846 L70.154,88.846 L70.154,92 L81.516,92 L81.516,88.846 L77.754,88.846 L77.754,77.37 L82.846,77.37 L82.846,74.406 L77.488,74.406 L77.488,72.24 C77.488,68.668 78.628,67.642 80.186,67.642 C80.566,67.642 80.908,67.756 81.136,67.87 C80.794,68.212 80.604,68.858 80.604,69.39 C80.604,71.1 81.706,72.012 83.378,72.012 C85.012,72.012 86.152,70.758 86.152,69.2 C86.152,67.072 84.442,65.514 80.604,65.514 C78.514,65.514 76.538,66.122 75.018,67.3 C74.106,66.274 72.358,65.628 69.66,65.628 L69.66,65.628 Z M72.206,74.406 L66.012,74.406 L66.012,72.962 C66.012,68.744 67.532,67.794 69.432,67.794 C70.078,67.794 70.458,67.908 70.724,68.06 C70.42,68.402 70.192,69.086 70.192,69.656 C70.192,71.1 70.99,71.974 72.282,72.164 C72.206,72.658 72.206,73.152 72.206,73.646 L72.206,74.406 Z M93.562,92.38 C99.034,92.38 103.176,88.504 103.176,82.994 C103.176,77.522 99.224,73.798 93.6,73.798 C88.09,73.798 83.948,77.712 83.948,83.184 C83.948,88.694 87.9,92.38 93.562,92.38 L93.562,92.38 Z M93.676,89.796 C91.244,89.796 90.028,87.934 90.028,83.108 C90.028,78.32 91.054,76.382 93.448,76.382 C95.918,76.382 97.096,78.282 97.096,83.07 C97.096,87.858 96.108,89.796 93.676,89.796 L93.676,89.796 Z M105.38,92 L116.856,92 L116.856,88.846 L113.55,88.846 L113.55,81.018 C114.196,78.814 115.45,77.674 116.476,77.598 C116.476,77.712 116.438,77.826 116.438,77.902 C116.438,79.65 117.73,80.6 119.402,80.6 C121.036,80.6 122.366,79.232 122.366,77.332 C122.366,75.47 120.96,73.836 118.756,73.836 C116.324,73.836 114.272,75.47 113.208,78.776 L113.208,74.216 L105.38,74.216 L105.38,77.37 L108.002,77.37 L108.002,88.846 L105.38,88.846 L105.38,92 Z M130.612,92.38 C133.5,92.38 135.476,90.746 136.54,88.276 L136.54,92 L144.292,92 L144.292,88.846 L141.746,88.846 L141.746,65.78 L133.462,65.78 L133.462,69.01 L136.198,69.01 L136.198,76.838 C135.096,75.052 133.386,73.798 130.84,73.798 C128.94,73.798 127.344,74.482 126.166,75.698 C124.532,77.294 123.582,79.992 123.582,83.184 C123.582,86.224 124.38,88.884 126.014,90.518 C127.154,91.658 128.674,92.38 130.612,92.38 L130.612,92.38 Z M132.93,89.112 C130.688,89.112 129.548,87.06 129.548,83.222 C129.548,79.27 130.612,77.142 132.93,77.142 C135.476,77.142 136.54,79.764 136.54,83.108 C136.54,86.604 135.134,89.112 132.93,89.112 L132.93,89.112 Z M151.588,92.342 C154.21,92.342 156.338,91.278 157.478,88.58 L157.668,88.58 C157.972,91.202 159.682,92.342 161.848,92.342 C164.394,92.342 165.8,91.012 166.522,88.086 L164.66,87.478 C164.318,88.77 163.9,89.188 163.482,89.188 C162.874,89.188 162.532,88.998 162.532,88.124 L162.532,80.03 C162.532,76.344 160.632,73.836 155.274,73.836 C150.904,73.836 146.838,75.394 146.838,78.662 C146.838,80.068 147.788,81.322 149.726,81.322 C151.284,81.322 152.424,80.296 152.424,78.966 C152.424,78.092 152.082,77.446 151.512,77.028 C152.234,76.724 153.032,76.572 153.792,76.572 C155.996,76.572 157.06,77.408 157.06,79.688 L157.06,81.246 C157.06,81.702 156.87,81.74 154.78,82.044 C150.41,82.614 148.586,83.374 147.408,84.552 C146.61,85.35 146.154,86.452 146.154,87.63 C146.154,90.518 148.434,92.342 151.588,92.342 L151.588,92.342 Z M154.172,89.112 C152.5,89.112 151.816,88.048 151.816,86.832 C151.816,85.122 152.652,84.248 155.35,83.792 C156.3,83.602 156.718,83.564 157.06,83.488 L157.06,85.236 C157.06,87.516 155.882,89.112 154.172,89.112 L154.172,89.112 Z M177.618,89.302 C175.224,89.302 173.818,86.908 173.818,83.412 C173.818,79.992 175.186,77.332 177.618,77.332 C179.822,77.332 180.81,79.346 180.81,83.146 C180.81,87.174 179.822,89.302 177.618,89.302 L177.618,89.302 Z M168.574,92.266 L171.5,92.266 L173.248,88.656 C174.426,90.898 176.326,92.38 179.48,92.38 C181.38,92.38 183.014,91.696 184.23,90.48 C185.826,88.884 186.776,86.262 186.776,83.07 C186.776,79.916 185.978,77.256 184.344,75.622 C183.242,74.52 181.836,73.798 179.822,73.798 C177.124,73.798 175.262,75.394 174.16,77.75 L174.16,65.78 L165.99,65.78 L165.99,69.01 L168.574,69.01 L168.574,92.266 Z M188.676,92 L200.038,92 L200.038,88.846 L197.15,88.846 L197.15,65.78 L188.676,65.78 L188.676,69.01 L191.564,69.01 L191.564,88.846 L188.676,88.846 L188.676,92 Z M219.76,83.83 C220.026,78.054 217.214,73.798 211.21,73.798 C205.852,73.798 201.862,77.864 201.862,83.26 C201.862,88.732 205.472,92.38 211.4,92.38 C216.378,92.38 218.886,89.948 219.57,86.224 L216.606,86.224 C215.808,88.466 214.478,89.34 212.35,89.34 C209.538,89.34 207.866,87.972 207.638,83.83 L219.76,83.83 Z M211.096,76.382 C213.148,76.382 214.136,77.826 214.326,81.436 L207.676,81.436 C207.904,77.636 209.12,76.382 211.096,76.382 L211.096,76.382 Z" id="--Affordable" fill="#5E9B78"></path>
                    <path d="M30.026,54 L43.022,54 L43.022,50.694 L39.64,50.694 L39.64,42.638 L49.406,42.638 L49.406,50.694 L45.986,50.694 L45.986,54 L59.02,54 L59.02,50.694 L55.6,50.694 L55.6,32.302 L59.02,32.302 L59.02,28.996 L45.986,28.996 L45.986,32.302 L49.406,32.302 L49.406,39.446 L39.64,39.446 L39.64,32.302 L43.022,32.302 L43.022,28.996 L30.026,28.996 L30.026,32.302 L33.446,32.302 L33.446,50.694 L30.026,50.694 L30.026,54 Z M78.97,45.83 C79.236,40.054 76.424,35.798 70.42,35.798 C65.062,35.798 61.072,39.864 61.072,45.26 C61.072,50.732 64.682,54.38 70.61,54.38 C75.588,54.38 78.096,51.948 78.78,48.224 L75.816,48.224 C75.018,50.466 73.688,51.34 71.56,51.34 C68.748,51.34 67.076,49.972 66.848,45.83 L78.97,45.83 Z M70.306,38.382 C72.358,38.382 73.346,39.826 73.536,43.436 L66.886,43.436 C67.114,39.636 68.33,38.382 70.306,38.382 L70.306,38.382 Z M86.608,54.342 C89.23,54.342 91.358,53.278 92.498,50.58 L92.688,50.58 C92.992,53.202 94.702,54.342 96.868,54.342 C99.414,54.342 100.82,53.012 101.542,50.086 L99.68,49.478 C99.338,50.77 98.92,51.188 98.502,51.188 C97.894,51.188 97.552,50.998 97.552,50.124 L97.552,42.03 C97.552,38.344 95.652,35.836 90.294,35.836 C85.924,35.836 81.858,37.394 81.858,40.662 C81.858,42.068 82.808,43.322 84.746,43.322 C86.304,43.322 87.444,42.296 87.444,40.966 C87.444,40.092 87.102,39.446 86.532,39.028 C87.254,38.724 88.052,38.572 88.812,38.572 C91.016,38.572 92.08,39.408 92.08,41.688 L92.08,43.246 C92.08,43.702 91.89,43.74 89.8,44.044 C85.43,44.614 83.606,45.374 82.428,46.552 C81.63,47.35 81.174,48.452 81.174,49.63 C81.174,52.518 83.454,54.342 86.608,54.342 L86.608,54.342 Z M89.192,51.112 C87.52,51.112 86.836,50.048 86.836,48.832 C86.836,47.122 87.672,46.248 90.37,45.792 C91.32,45.602 91.738,45.564 92.08,45.488 L92.08,47.236 C92.08,49.516 90.902,51.112 89.192,51.112 L89.192,51.112 Z M101.656,54 L113.018,54 L113.018,50.846 L110.13,50.846 L110.13,27.78 L101.656,27.78 L101.656,31.01 L104.544,31.01 L104.544,50.846 L101.656,50.846 L101.656,54 Z M117.198,32.226 L117.198,36.406 L113.93,36.406 L113.93,39.37 L117.084,39.37 L117.084,48.3 C117.084,52.366 118.984,54.38 122.86,54.38 C126.432,54.38 128.294,52.518 129.13,48.186 L126.85,47.54 C126.166,50.01 125.634,50.884 124.494,50.884 C123.202,50.884 122.632,49.972 122.632,48.338 L122.632,39.37 L128.332,39.37 L128.332,36.406 L122.632,36.406 L122.632,31.58 L117.198,32.226 Z M130.346,54 L140.492,54 L140.492,50.846 L138.516,50.846 L138.516,43.892 C138.516,41.346 140.15,39.56 141.898,39.56 C142.696,39.56 143.266,39.788 143.684,40.168 C144.254,40.738 144.482,41.688 144.482,42.866 L144.482,50.846 L142.468,50.846 L142.468,54 L152.614,54 L152.614,50.846 L150.068,50.846 L150.068,42.106 C150.068,38.42 148.472,35.836 144.634,35.836 C141.746,35.836 139.884,37.508 138.516,40.206 L138.516,27.78 L130.346,27.78 L130.346,31.01 L132.93,31.01 L132.93,50.846 L130.346,50.846 L130.346,54 Z M156.566,53.468 C154.818,53.468 153.64,54.874 153.64,56.66 C153.64,58.94 155.312,60.612 158.542,60.612 C162.646,60.612 164.698,57.8 166.522,53.506 L172.602,39.37 L174.768,39.37 L174.768,36.216 L166.978,36.216 L166.978,39.37 L169.22,39.37 L165.648,48.68 L161.658,39.37 L164.356,39.37 L164.356,36.216 L153.222,36.216 L153.222,39.37 L155.578,39.37 L162.722,54.304 C161.62,56.964 160.67,57.686 159.112,57.876 C159.302,57.496 159.416,56.964 159.416,56.47 C159.416,54.988 158.504,53.468 156.566,53.468 L156.566,53.468 Z" id="Healthy" fill="#67BBC4"></path>
                </g>
            </g>
        </g>
    </g>
</svg>