<?xml version="1.0" encoding="UTF-8" standalone="no"?>
<svg width="219px" height="63px" viewBox="0 0 219 63" version="1.1" xmlns="http://www.w3.org/2000/svg" xmlns:xlink="http://www.w3.org/1999/xlink">
    <!-- Generator: Sketch 3.6.1 (26313) - http://www.bohemiancoding.com/sketch -->
    <title>hbn-horizontal</title>
    <desc>Created with Sketch.</desc>
    <defs></defs>
    <g id="Page-1" stroke="none" stroke-width="1" fill="none" fill-rule="evenodd">
        <g id="Desktop-HD-Copy-4" transform="translate(-355.000000, -3750.000000)">
            <g id="Group-10" transform="translate(355.000000, 3750.000000)">
                <g id="hbn-horizontal">
                    <path d="M25.2212346,61.3843142 L25.2212346,32.8888413 C25.2212346,28.6638749 24.0587654,27.0883259 20.9081481,27.0883259 C18.1676543,27.0883259 14.6014815,28.7452286 12.1108642,30.9824541 L12.1108642,61.3843142 L0.828395062,61.3843142 L0.828395062,12.3443321 C0.828395062,8.3661385 0.497037037,4.39065666 0,2.65240027 L11.3666667,0.000271178843 C11.8637037,2.31885029 12.1108642,6.29704393 12.1108642,10.3565912 L12.1108642,18.8038122 C12.1108642,20.1298767 11.9451852,21.8708449 11.9451852,22.3671022 C14.851358,19.6336195 19.6614815,17.8112976 23.977284,17.8112976 C29.368642,17.8112976 33.6844444,20.1298767 35.0125926,23.8585858 C35.8409877,26.2612304 36.0908642,27.6686486 36.0908642,31.7281959 L36.0908642,61.3843142 L25.2212346,61.3843142 L25.2212346,61.3843142 Z" id="Fill-1" fill="#F8BB00"></path>
                    <path d="M67.1211852,32.4736665 C66.2927901,28.8290229 63.9678519,27.0880547 61.0643951,27.0880547 C58.1609383,27.0880547 56.1700741,28.9103765 54.7577284,30.4859256 L54.7577284,50.0352084 C56.2515556,51.361273 57.9952593,52.7686912 60.9801975,52.7686912 C63.7206914,52.7686912 65.461679,51.6921112 66.3742716,49.4548857 C67.3710617,47.1363066 67.6182222,44.8990811 67.6182222,39.6816002 C67.6182222,35.8688256 67.5367407,34.2959883 67.1211852,32.4736665 M72.3495802,58.9000448 C69.4434074,61.2186239 66.5399506,62.2138503 63.0552593,62.2138503 C58.9078519,62.2138503 56.0043951,60.9691394 53.5979753,58.3197221 C53.2666173,59.8112057 53.1824198,60.2233976 52.4355062,61.384043 L42.4784691,61.384043 C43.3095802,59.4803675 43.5567407,58.2356567 43.5567407,52.3537875 L43.5567407,13.0898028 C43.5567407,7.86961004 43.3910617,5.05477364 42.8125432,2.65212909 L54.1792099,0 C54.5105679,2.89890184 54.5920494,4.63987001 54.5920494,7.53877185 L54.5920494,17.5615419 C54.5920494,18.8062528 54.5105679,20.6285746 54.3448889,21.290251 C56.5014321,18.9716719 59.4890864,17.8950919 63.3893333,17.8950919 C73.7592099,17.8950919 80.2315556,26.1768938 80.2315556,39.4321156 C80.2315556,48.0474675 77.5752593,54.7564321 72.3495802,58.9000448" id="Fill-3" fill="#F8BB00"></path>
                    <path d="M109.43642,61.3843142 L109.43642,33.8000022 C109.43642,28.9947131 108.608025,27.5845831 105.704568,27.5845831 C103.463827,27.5845831 100.557654,29.0760668 97.9882716,31.3973577 L97.9882716,61.3843142 L86.8687654,61.3843142 L86.8687654,30.6516159 C86.8687654,27.0069722 86.3717284,23.5277476 85.3749383,20.7101995 L95.2477778,17.8926513 C96.2445679,19.6336195 96.8258025,21.4559413 96.8258025,23.1941977 C98.4853086,22.036264 99.8949383,21.0410377 101.720123,20.0485231 C103.960864,18.8878776 106.864321,18.2262013 109.354938,18.2262013 C114.08358,18.2262013 118.230988,20.7101995 119.559136,24.3548431 C120.14037,25.9303922 120.387531,27.752714 120.387531,30.4021313 L120.387531,61.3843142 L109.43642,61.3843142 Z" id="Fill-5" fill="#F8BB00"></path>
                    <path d="M10.5868889,46.6790991 L10.5868889,42.8256477 L7.82195062,42.8256477 L7.82195062,46.6790991 L5.89898765,46.6790991 L5.89898765,38.0393411 L7.82195062,38.0393411 L7.82195062,41.3965352 L10.5868889,41.3965352 L10.5868889,38.0393411 L12.5505926,38.0393411 L12.5505926,46.6790991 L10.5868889,46.6790991 Z" id="Fill-7" fill="#0E3667"></path>
                    <path d="M10.5868889,46.6790991 L10.5868889,42.8256477 L7.82195062,42.8256477 L7.82195062,46.6790991 L5.89898765,46.6790991 L5.89898765,38.0393411 L7.82195062,38.0393411 L7.82195062,41.3965352 L10.5868889,41.3965352 L10.5868889,38.0393411 L12.5505926,38.0393411 L12.5505926,46.6790991 L10.5868889,46.6790991 Z" id="Fill-9" fill="#0E3667"></path>
                    <path d="M16.007037,46.6790991 L16.007037,38.0393411 L21.4825926,38.0393411 L21.2354321,39.4576065 L17.9435802,39.4576065 L17.9435802,41.4589063 L20.6949383,41.4589063 L20.6949383,42.8744599 L17.9707407,42.8744599 L17.9707407,45.1876154 L21.6075309,45.1876154 L21.6075309,46.6790991 L16.007037,46.6790991 Z" id="Fill-11" fill="#0E3667"></path>
                    <path d="M16.007037,46.6790991 L16.007037,38.0393411 L21.4825926,38.0393411 L21.2354321,39.4576065 L17.9435802,39.4576065 L17.9435802,41.4589063 L20.6949383,41.4589063 L20.6949383,42.8744599 L17.9707407,42.8744599 L17.9707407,45.1876154 L21.6075309,45.1876154 L21.6075309,46.6790991 L16.007037,46.6790991 Z" id="Fill-13" fill="#0E3667"></path>
                    <path d="M28.3699506,41.4461609 C28.2721728,41.047528 27.9815556,39.9167122 27.9815556,39.9167122 C27.9815556,39.9167122 27.7072346,40.9363447 27.5252593,41.5817503 C27.346,42.2054617 27.2210617,42.6149417 27.014642,43.1871291 L28.8968642,43.1871291 C28.8968642,43.1871291 28.5763704,42.27868 28.3699506,41.4461609 L28.3699506,41.4461609 Z M30.043037,46.6799126 L29.3667407,44.6270887 L26.5447654,44.6270887 L25.8657531,46.6799126 L23.8477284,46.6799126 L27.0010617,38.0157485 L29.0897037,38.0157485 L32.1180988,46.6799126 L30.043037,46.6799126 Z" id="Fill-15" fill="#0E3667"></path>
                    <path d="M28.3699506,41.4461609 C28.2721728,41.047528 27.9815556,39.9167122 27.9815556,39.9167122 C27.9815556,39.9167122 27.7072346,40.9363447 27.5252593,41.5817503 C27.346,42.2054617 27.2210617,42.6149417 27.014642,43.1871291 L28.8968642,43.1871291 C28.8968642,43.1871291 28.5763704,42.27868 28.3699506,41.4461609 L28.3699506,41.4461609 Z M30.043037,46.6799126 L29.3667407,44.6270887 L26.5447654,44.6270887 L25.8657531,46.6799126 L23.8477284,46.6799126 L27.0010617,38.0157485 L29.0897037,38.0157485 L32.1180988,46.6799126 L30.043037,46.6799126 Z" id="Fill-17" fill="#0E3667"></path>
                    <path d="M39.294716,46.6790991 L34.2184198,46.6790991 L34.2184198,38.0393411 L36.1957037,38.0393411 L36.1957037,45.2364276 L39.6396543,45.2364276 L39.294716,46.6790991 Z" id="Fill-19" fill="#0E3667"></path>
                    <path d="M39.294716,46.6790991 L34.2184198,46.6790991 L34.2184198,38.0393411 L36.1957037,38.0393411 L36.1957037,45.2364276 L39.6396543,45.2364276 L39.294716,46.6790991 Z" id="Fill-21" fill="#0E3667"></path>
                    <path d="M47.9790123,39.4820126 L45.6839506,39.4820126 L45.6839506,46.6790991 L43.7202469,46.6790991 L43.7202469,39.4820126 L41.3681481,39.4820126 L41.3681481,38.0393411 L48.2967901,38.0393411 L47.9790123,39.4820126 Z" id="Fill-23" fill="#0E3667"></path>
                    <path d="M47.9790123,39.4820126 L45.6839506,39.4820126 L45.6839506,46.6790991 L43.7202469,46.6790991 L43.7202469,39.4820126 L41.3681481,39.4820126 L41.3681481,38.0393411 L48.2967901,38.0393411 L47.9790123,39.4820126 Z" id="Fill-25" fill="#0E3667"></path>
                    <path d="M55.4739506,46.6790991 L55.4739506,42.8256477 L52.7090123,42.8256477 L52.7090123,46.6790991 L50.7860494,46.6790991 L50.7860494,38.0393411 L52.7090123,38.0393411 L52.7090123,41.3965352 L55.4739506,41.3965352 L55.4739506,38.0393411 L57.4376543,38.0393411 L57.4376543,46.6790991 L55.4739506,46.6790991 Z" id="Fill-27" fill="#0E3667"></path>
                    <path d="M55.4739506,46.6790991 L55.4739506,42.8256477 L52.7090123,42.8256477 L52.7090123,46.6790991 L50.7860494,46.6790991 L50.7860494,38.0393411 L52.7090123,38.0393411 L52.7090123,41.3965352 L55.4739506,41.3965352 L55.4739506,38.0393411 L57.4376543,38.0393411 L57.4376543,46.6790991 L55.4739506,46.6790991 Z" id="Fill-29" fill="#0E3667"></path>
                    <path d="M64.8630617,43.1242156 L64.8630617,46.6793702 L62.845037,46.6793702 L62.845037,43.1242156 L59.8573827,38.0396123 L62.1796049,38.0396123 L63.4099753,40.40158 C63.6598519,40.8734312 63.7847901,41.1852869 63.8961481,41.5079897 C64.0047901,41.2585052 64.2003457,40.8381779 64.4067654,40.4259861 L65.650716,38.0396123 L67.9349136,38.0396123 L64.8630617,43.1242156 Z" id="Fill-31" fill="#0E3667"></path>
                    <path d="M64.8630617,43.1242156 L64.8630617,46.6793702 L62.845037,46.6793702 L62.845037,43.1242156 L59.8573827,38.0396123 L62.1796049,38.0396123 L63.4099753,40.40158 C63.6598519,40.8734312 63.7847901,41.1852869 63.8961481,41.5079897 C64.0047901,41.2585052 64.2003457,40.8381779 64.4067654,40.4259861 L65.650716,38.0396123 L67.9349136,38.0396123 L64.8630617,43.1242156 Z" id="Fill-33" fill="#0E3667"></path>
                    <path d="M80.1158519,42.9997445 C79.8795556,42.9373734 79.7274568,42.9265262 79.3689383,42.9265262 L78.1657284,42.9265262 L78.1657284,45.2613761 L79.4232593,45.2613761 C79.8252346,45.2613761 80.1158519,45.2125639 80.3222716,45.0634155 C80.6128889,44.865455 80.8220247,44.4668221 80.8220247,44.057342 C80.8220247,43.5583729 80.5449877,43.1109278 80.1158519,42.9997445 M80.0615309,39.6317033 C79.8958519,39.5693321 79.686716,39.5205199 79.2575802,39.5205199 L78.1385679,39.5205199 L78.1385679,41.4947019 L79.2874568,41.4947019 C79.7437531,41.4947019 79.9501728,41.4594487 80.1158519,41.3835186 C80.3793086,41.2587763 80.6128889,40.8492963 80.6128889,40.5021874 C80.6128889,40.1415195 80.4064691,39.7564455 80.0615309,39.6317033 M80.4879506,46.6552353 C80.1837531,46.6660825 79.7844938,46.6796414 79.2575802,46.6796414 L76.2291852,46.6796414 L76.2291852,38.0398835 L79.4802963,38.0398835 C80.6563457,38.0398835 81.2647407,38.2025908 81.8432593,38.660883 C82.3837531,39.083922 82.6336296,39.5801793 82.6336296,40.2038906 C82.6336296,40.7869251 82.4109136,41.2831824 81.9844938,41.6438503 C81.7074568,41.8797759 81.5417778,41.9692649 81.0963457,42.0912954 C82.2859753,42.4031511 83.0057284,43.1353339 83.0057284,44.2661497 C83.0057284,45.4620484 82.1773333,46.5793052 80.4879506,46.6552353" id="Fill-35" fill="#0E3667"></path>
                    <path d="M80.1158519,42.9997445 C79.8795556,42.9373734 79.7274568,42.9265262 79.3689383,42.9265262 L78.1657284,42.9265262 L78.1657284,45.2613761 L79.4232593,45.2613761 C79.8252346,45.2613761 80.1158519,45.2125639 80.3222716,45.0634155 C80.6128889,44.865455 80.8220247,44.4668221 80.8220247,44.057342 C80.8220247,43.5583729 80.5449877,43.1109278 80.1158519,42.9997445 M80.0615309,39.6317033 C79.8958519,39.5693321 79.686716,39.5205199 79.2575802,39.5205199 L78.1385679,39.5205199 L78.1385679,41.4947019 L79.2874568,41.4947019 C79.7437531,41.4947019 79.9501728,41.4594487 80.1158519,41.3835186 C80.3793086,41.2587763 80.6128889,40.8492963 80.6128889,40.5021874 C80.6128889,40.1415195 80.4064691,39.7564455 80.0615309,39.6317033 M80.4879506,46.6552353 C80.1837531,46.6660825 79.7844938,46.6796414 79.2575802,46.6796414 L76.2291852,46.6796414 L76.2291852,38.0398835 L79.4802963,38.0398835 C80.6563457,38.0398835 81.2647407,38.2025908 81.8432593,38.660883 C82.3837531,39.083922 82.6336296,39.5801793 82.6336296,40.2038906 C82.6336296,40.7869251 82.4109136,41.2831824 81.9844938,41.6438503 C81.7074568,41.8797759 81.5417778,41.9692649 81.0963457,42.0912954 C82.2859753,42.4031511 83.0057284,43.1353339 83.0057284,44.2661497 C83.0057284,45.4620484 82.1773333,46.5793052 80.4879506,46.6552353" id="Fill-37" fill="#0E3667"></path>
                    <path d="M92.5061975,45.2125639 C92.256321,45.8959346 91.3165679,46.8396369 89.2415062,46.8396369 C87.7775556,46.8396369 86.6965679,46.4437158 86.1587901,45.6844151 C85.8410123,45.23697 85.7432346,44.889861 85.7432346,44.057342 L85.7432346,38.0398835 L87.7205185,38.0398835 L87.7205185,43.7210802 C87.7205185,44.2553026 87.7775556,44.5671582 87.8861975,44.7515598 C88.1089136,45.1366338 88.5652099,45.3481533 89.2007654,45.3481533 C90.0454568,45.3481533 90.5832346,44.9766383 90.6674321,44.3420798 C90.6945926,44.1549664 90.6945926,44.0329359 90.6945926,43.5719319 L90.6945926,38.0398835 L92.6582963,38.0398835 L92.6582963,43.8566697 C92.6582963,44.6783416 92.644716,44.8383371 92.5061975,45.2125639" id="Fill-39" fill="#0E3667"></path>
                    <path d="M92.5061975,45.2125639 C92.256321,45.8959346 91.3165679,46.8396369 89.2415062,46.8396369 C87.7775556,46.8396369 86.6965679,46.4437158 86.1587901,45.6844151 C85.8410123,45.23697 85.7432346,44.889861 85.7432346,44.057342 L85.7432346,38.0398835 L87.7205185,38.0398835 L87.7205185,43.7210802 C87.7205185,44.2553026 87.7775556,44.5671582 87.8861975,44.7515598 C88.1089136,45.1366338 88.5652099,45.3481533 89.2007654,45.3481533 C90.0454568,45.3481533 90.5832346,44.9766383 90.6674321,44.3420798 C90.6945926,44.1549664 90.6945926,44.0329359 90.6945926,43.5719319 L90.6945926,38.0398835 L92.6582963,38.0398835 L92.6582963,43.8566697 C92.6582963,44.6783416 92.644716,44.8383371 92.5061975,45.2125639" id="Fill-41" fill="#0E3667"></path>
                    <path d="M96.0883951,46.6807261 L98.1091358,46.6807261 L98.1091358,38.0409682 L96.0883951,38.0409682 L96.0883951,46.6807261 Z" id="Fill-43" fill="#0E3667"></path>
                    <path d="M96.0883951,46.6807261 L98.1091358,46.6807261 L98.1091358,38.0409682 L96.0883951,38.0409682 L96.0883951,46.6807261 Z" id="Fill-45" fill="#0E3667"></path>
                    <path d="M106.362395,46.6790991 L101.286099,46.6790991 L101.286099,38.0393411 L103.263383,38.0393411 L103.263383,45.2364276 L106.707333,45.2364276 L106.362395,46.6790991 Z" id="Fill-46" fill="#0E3667"></path>
                    <path d="M106.362395,46.6790991 L101.286099,46.6790991 L101.286099,38.0393411 L103.263383,38.0393411 L103.263383,45.2364276 L106.707333,45.2364276 L106.362395,46.6790991 Z" id="Fill-47" fill="#0E3667"></path>
                    <path d="M113.912198,40.1285029 C113.59442,39.6566517 113.151704,39.4071672 112.39121,39.4071672 L111.505778,39.4071672 L111.505778,45.2619184 L112.543309,45.2619184 C113.81442,45.2619184 114.395654,44.3805872 114.395654,42.5528418 C114.395654,41.5467683 114.300593,40.7006903 113.912198,40.1285029 M115.60158,45.3866607 C115.01763,46.0944375 114.162074,46.5662887 113.263062,46.6286598 C112.901827,46.6530659 112.448247,46.6801838 111.880593,46.6801838 L109.542074,46.6801838 L109.542074,38.0404258 L111.478617,38.0404258 C112.032691,38.0404258 112.763309,38.0648319 113.151704,38.089238 C113.966519,38.1516091 114.672691,38.4254998 115.253926,38.9488749 C116.139358,39.72987 116.568494,40.8362797 116.568494,42.3901345 C116.568494,43.5724742 116.250716,44.6029538 115.60158,45.3866607" id="Fill-48" fill="#0E3667"></path>
                    <path d="M113.912198,40.1285029 C113.59442,39.6566517 113.151704,39.4071672 112.39121,39.4071672 L111.505778,39.4071672 L111.505778,45.2619184 L112.543309,45.2619184 C113.81442,45.2619184 114.395654,44.3805872 114.395654,42.5528418 C114.395654,41.5467683 114.300593,40.7006903 113.912198,40.1285029 M115.60158,45.3866607 C115.01763,46.0944375 114.162074,46.5662887 113.263062,46.6286598 C112.901827,46.6530659 112.448247,46.6801838 111.880593,46.6801838 L109.542074,46.6801838 L109.542074,38.0404258 L111.478617,38.0404258 C112.032691,38.0404258 112.763309,38.0648319 113.151704,38.089238 C113.966519,38.1516091 114.672691,38.4254998 115.253926,38.9488749 C116.139358,39.72987 116.568494,40.8362797 116.568494,42.3901345 C116.568494,43.5724742 116.250716,44.6029538 115.60158,45.3866607" id="Fill-49" fill="#0E3667"></path>
                    <path d="M119.332346,46.6807261 L121.353086,46.6807261 L121.353086,38.0409682 L119.332346,38.0409682 L119.332346,46.6807261 Z" id="Fill-50" fill="#0E3667"></path>
                    <path d="M119.332346,46.6807261 L121.353086,46.6807261 L121.353086,38.0409682 L119.332346,38.0409682 L119.332346,46.6807261 Z" id="Fill-51" fill="#0E3667"></path>
                    <path d="M129.192691,46.6790991 L127.546765,43.373429 C127.008988,42.2914254 126.427753,41.0738324 126.248494,40.53961 C126.316395,41.2473868 126.329975,42.2670193 126.343556,42.988355 L126.400593,46.6790991 L124.531951,46.6790991 L124.531951,38.0393411 L126.674914,38.0393411 L128.516395,41.4968714 C128.999852,42.4161676 129.371951,43.321905 129.56479,43.9456163 C129.496889,43.2730928 129.428988,42.1666831 129.412691,41.5700896 L129.371951,38.0393411 L131.213432,38.0393411 L131.213432,46.6790991 L129.192691,46.6790991 Z" id="Fill-52" fill="#0E3667"></path>
                    <path d="M129.192691,46.6790991 L127.546765,43.373429 C127.008988,42.2914254 126.427753,41.0738324 126.248494,40.53961 C126.316395,41.2473868 126.329975,42.2670193 126.343556,42.988355 L126.400593,46.6790991 L124.531951,46.6790991 L124.531951,38.0393411 L126.674914,38.0393411 L128.516395,41.4968714 C128.999852,42.4161676 129.371951,43.321905 129.56479,43.9456163 C129.496889,43.2730928 129.428988,42.1666831 129.412691,41.5700896 L129.371951,38.0393411 L131.213432,38.0393411 L131.213432,46.6790991 L129.192691,46.6790991 Z" id="Fill-53" fill="#0E3667"></path>
                    <path d="M138.554642,46.7783505 C137.115136,46.7783505 136.050444,46.3553115 135.27637,45.4604213 C134.572914,44.6523084 134.25242,43.7330121 134.25242,42.439489 C134.25242,40.6144554 134.917852,39.3209323 136.25958,38.5128194 C136.963037,38.0897804 137.68279,37.902667 138.595383,37.902667 C139.757852,37.902667 140.808963,38.2389287 141.653654,38.8978933 L140.629704,39.9798969 C140.007728,39.5188929 139.355877,39.3073734 138.625259,39.3073734 C138.057605,39.3073734 137.574148,39.4565217 137.240074,39.7439713 C136.590938,40.3025997 136.425259,41.235455 136.425259,42.5262662 C136.425259,43.7574182 136.661556,44.554684 137.145012,44.9885701 C137.503531,45.3004258 138.030444,45.4739803 138.65242,45.4739803 C139.07884,45.4739803 139.426494,45.4116091 139.744272,45.2624608 L139.744272,43.299126 L138.277605,43.299126 L138.030444,41.8808606 L141.748716,41.8808606 L141.748716,46.0082026 C140.768222,46.528866 139.687235,46.7783505 138.554642,46.7783505" id="Fill-54" fill="#0E3667"></path>
                    <path d="M138.554642,46.7783505 C137.115136,46.7783505 136.050444,46.3553115 135.27637,45.4604213 C134.572914,44.6523084 134.25242,43.7330121 134.25242,42.439489 C134.25242,40.6144554 134.917852,39.3209323 136.25958,38.5128194 C136.963037,38.0897804 137.68279,37.902667 138.595383,37.902667 C139.757852,37.902667 140.808963,38.2389287 141.653654,38.8978933 L140.629704,39.9798969 C140.007728,39.5188929 139.355877,39.3073734 138.625259,39.3073734 C138.057605,39.3073734 137.574148,39.4565217 137.240074,39.7439713 C136.590938,40.3025997 136.425259,41.235455 136.425259,42.5262662 C136.425259,43.7574182 136.661556,44.554684 137.145012,44.9885701 C137.503531,45.3004258 138.030444,45.4739803 138.65242,45.4739803 C139.07884,45.4739803 139.426494,45.4116091 139.744272,45.2624608 L139.744272,43.299126 L138.277605,43.299126 L138.030444,41.8808606 L141.748716,41.8808606 L141.748716,46.0082026 C140.768222,46.528866 139.687235,46.7783505 138.554642,46.7783505" id="Fill-55" fill="#0E3667"></path>
                    <path d="M155.328148,46.6790991 L153.682222,43.373429 C153.141728,42.2914254 152.56321,41.0738324 152.381235,40.53961 C152.451852,41.2473868 152.465432,42.2670193 152.479012,42.988355 L152.533333,46.6790991 L150.667407,46.6790991 L150.667407,38.0393411 L152.81037,38.0393411 L154.651852,41.4968714 C155.135309,42.4161676 155.507407,43.321905 155.700247,43.9456163 C155.632346,43.2730928 155.564444,42.1666831 155.548148,41.5700896 L155.507407,38.0393411 L157.346173,38.0393411 L157.346173,46.6790991 L155.328148,46.6790991 Z" id="Fill-56" fill="#0E3667"></path>
                    <path d="M155.328148,46.6790991 L153.682222,43.373429 C153.141728,42.2914254 152.56321,41.0738324 152.381235,40.53961 C152.451852,41.2473868 152.465432,42.2670193 152.479012,42.988355 L152.533333,46.6790991 L150.667407,46.6790991 L150.667407,38.0393411 L152.81037,38.0393411 L154.651852,41.4968714 C155.135309,42.4161676 155.507407,43.321905 155.700247,43.9456163 C155.632346,43.2730928 155.564444,42.1666831 155.548148,41.5700896 L155.507407,38.0393411 L157.346173,38.0393411 L157.346173,46.6790991 L155.328148,46.6790991 Z" id="Fill-57" fill="#0E3667"></path>
                    <path d="M161.079654,46.6790991 L161.079654,38.0393411 L166.557926,38.0393411 L166.308049,39.4576065 L163.016198,39.4576065 L163.016198,41.4589063 L165.767556,41.4589063 L165.767556,42.8744599 L163.043358,42.8744599 L163.043358,45.1876154 L166.682864,45.1876154 L166.682864,46.6790991 L161.079654,46.6790991 Z" id="Fill-58" fill="#0E3667"></path>
                    <path d="M161.079654,46.6790991 L161.079654,38.0393411 L166.557926,38.0393411 L166.308049,39.4576065 L163.016198,39.4576065 L163.016198,41.4589063 L165.767556,41.4589063 L165.767556,42.8744599 L163.043358,42.8744599 L163.043358,45.1876154 L166.682864,45.1876154 L166.682864,46.6790991 L161.079654,46.6790991 Z" id="Fill-59" fill="#0E3667"></path>
                    <path d="M175.226741,39.4820126 L172.931679,39.4820126 L172.931679,46.6790991 L170.967975,46.6790991 L170.967975,39.4820126 L168.615877,39.4820126 L168.615877,38.0393411 L175.544519,38.0393411 L175.226741,39.4820126 Z" id="Fill-60" fill="#0E3667"></path>
                    <path d="M175.226741,39.4820126 L172.931679,39.4820126 L172.931679,46.6790991 L170.967975,46.6790991 L170.967975,39.4820126 L168.615877,39.4820126 L168.615877,38.0393411 L175.544519,38.0393411 L175.226741,39.4820126 Z" id="Fill-61" fill="#0E3667"></path>
                    <path d="M186.386988,46.7534021 L184.271185,46.7534021 L183.412914,43.2362125 C183.138593,42.1542089 182.986494,41.0857642 182.956617,40.7739086 C182.929457,40.9745809 182.763778,42.0674316 182.500321,43.2118064 L181.699086,46.7534021 L179.499086,46.7534021 L177.204025,38.0404258 L179.24921,38.0404258 L180.080321,41.4464321 C180.468716,43.062658 180.593654,44.2910982 180.593654,44.2910982 C180.634395,43.9575482 180.800074,42.7263962 181.090691,41.5332093 L181.946247,38.0404258 L184.062049,38.0404258 L184.947481,41.9047243 C185.126741,42.7128373 185.363037,44.1934738 185.363037,44.1934738 C185.390198,43.9195831 185.680815,42.1677678 185.887235,41.3216898 L186.677605,38.0404258 L188.70921,38.0404258 L186.386988,46.7534021 Z" id="Fill-62" fill="#0E3667"></path>
                    <path d="M186.386988,46.7534021 L184.271185,46.7534021 L183.412914,43.2362125 C183.138593,42.1542089 182.986494,41.0857642 182.956617,40.7739086 C182.929457,40.9745809 182.763778,42.0674316 182.500321,43.2118064 L181.699086,46.7534021 L179.499086,46.7534021 L177.204025,38.0404258 L179.24921,38.0404258 L180.080321,41.4464321 C180.468716,43.062658 180.593654,44.2910982 180.593654,44.2910982 C180.634395,43.9575482 180.800074,42.7263962 181.090691,41.5332093 L181.946247,38.0404258 L184.062049,38.0404258 L184.947481,41.9047243 C185.126741,42.7128373 185.363037,44.1934738 185.363037,44.1934738 C185.390198,43.9195831 185.680815,42.1677678 185.887235,41.3216898 L186.677605,38.0404258 L188.70921,38.0404258 L186.386988,46.7534021 Z" id="Fill-63" fill="#0E3667"></path>
                    <path d="M196.744099,40.3646997 C196.592,39.9308135 196.081383,39.2718489 195.057432,39.2718489 C194.40558,39.2718489 193.840642,39.5701457 193.563605,40.0284379 C193.232247,40.5870663 193.080148,41.3463671 193.080148,42.3904056 C193.080148,43.8818893 193.354469,44.8147445 193.935704,45.1862595 C194.239901,45.3869319 194.628296,45.4845563 195.084593,45.4845563 C196.426321,45.4845563 196.993975,44.56526 196.993975,42.3659996 C196.993975,41.4819565 196.909778,40.8501098 196.744099,40.3646997 M197.075457,46.4174115 C196.494222,46.704861 195.956444,46.8160444 195.152494,46.8160444 C193.702123,46.8160444 192.76237,46.4553765 192.026321,45.5984514 C191.295704,44.7523734 190.920889,43.6595226 190.920889,42.3904056 C190.920889,40.527407 191.711259,39.0359234 193.093728,38.3525527 C193.658667,38.078662 194.36484,37.9295137 195.084593,37.9295137 C197.643111,37.9295137 199.221136,39.6053989 199.221136,42.3171874 C199.221136,44.2669632 198.471506,45.7340408 197.075457,46.4174115" id="Fill-64" fill="#0E3667"></path>
                    <path d="M196.744099,40.3646997 C196.592,39.9308135 196.081383,39.2718489 195.057432,39.2718489 C194.40558,39.2718489 193.840642,39.5701457 193.563605,40.0284379 C193.232247,40.5870663 193.080148,41.3463671 193.080148,42.3904056 C193.080148,43.8818893 193.354469,44.8147445 193.935704,45.1862595 C194.239901,45.3869319 194.628296,45.4845563 195.084593,45.4845563 C196.426321,45.4845563 196.993975,44.56526 196.993975,42.3659996 C196.993975,41.4819565 196.909778,40.8501098 196.744099,40.3646997 M197.075457,46.4174115 C196.494222,46.704861 195.956444,46.8160444 195.152494,46.8160444 C193.702123,46.8160444 192.76237,46.4553765 192.026321,45.5984514 C191.295704,44.7523734 190.920889,43.6595226 190.920889,42.3904056 C190.920889,40.527407 191.711259,39.0359234 193.093728,38.3525527 C193.658667,38.078662 194.36484,37.9295137 195.084593,37.9295137 C197.643111,37.9295137 199.221136,39.6053989 199.221136,42.3171874 C199.221136,44.2669632 198.471506,45.7340408 197.075457,46.4174115" id="Fill-65" fill="#0E3667"></path>
                    <path d="M205.662247,39.5568579 C205.442247,39.4809278 205.040272,39.4321156 204.570395,39.4321156 L203.877802,39.4321156 L203.877802,41.7696773 L204.529654,41.7696773 C205.358049,41.7696773 205.716568,41.6937472 205.980025,41.4822277 C206.216321,41.2842671 206.35484,40.9724115 206.35484,40.6144554 C206.35484,40.0775213 206.118543,39.7060063 205.662247,39.5568579 L205.662247,39.5568579 Z M206.672617,46.6780143 C206.300519,46.1085388 206.145704,45.8699014 205.773605,45.2624608 C204.820272,43.708606 204.529654,43.285567 204.182,43.1499776 C204.086938,43.1120126 204.002741,43.0876065 203.877802,43.0740475 L203.877802,46.6780143 L201.984716,46.6780143 L201.984716,38.0409682 L205.567185,38.0409682 C207.267432,38.0409682 208.386444,39.0606006 208.386444,40.5764904 C208.386444,41.8673017 207.433111,42.9384581 206.243481,42.9628642 C206.439037,43.0984536 206.520519,43.1743837 206.645457,43.323532 C207.196815,43.9445316 208.954099,46.6780143 208.954099,46.6780143 L206.672617,46.6780143 Z" id="Fill-66" fill="#0E3667"></path>
                    <path d="M205.662247,39.5568579 C205.442247,39.4809278 205.040272,39.4321156 204.570395,39.4321156 L203.877802,39.4321156 L203.877802,41.7696773 L204.529654,41.7696773 C205.358049,41.7696773 205.716568,41.6937472 205.980025,41.4822277 C206.216321,41.2842671 206.35484,40.9724115 206.35484,40.6144554 C206.35484,40.0775213 206.118543,39.7060063 205.662247,39.5568579 L205.662247,39.5568579 Z M206.672617,46.6780143 C206.300519,46.1085388 206.145704,45.8699014 205.773605,45.2624608 C204.820272,43.708606 204.529654,43.285567 204.182,43.1499776 C204.086938,43.1120126 204.002741,43.0876065 203.877802,43.0740475 L203.877802,46.6780143 L201.984716,46.6780143 L201.984716,38.0409682 L205.567185,38.0409682 C207.267432,38.0409682 208.386444,39.0606006 208.386444,40.5764904 C208.386444,41.8673017 207.433111,42.9384581 206.243481,42.9628642 C206.439037,43.0984536 206.520519,43.1743837 206.645457,43.323532 C207.196815,43.9445316 208.954099,46.6780143 208.954099,46.6780143 L206.672617,46.6780143 Z" id="Fill-67" fill="#0E3667"></path>
                    <path d="M216.477284,46.6790991 L213.560247,42.1666831 L213.560247,46.6790991 L211.580247,46.6790991 L211.580247,38.0393411 L213.560247,38.0393411 L213.560247,41.9795697 L216.298025,38.0393411 L218.677284,38.0393411 L215.605432,42.0419408 L219.022222,46.6790991 L216.477284,46.6790991 Z" id="Fill-68" fill="#0E3667"></path>
                    <path d="M216.477284,46.6790991 L213.560247,42.1666831 L213.560247,46.6790991 L211.580247,46.6790991 L211.580247,38.0393411 L213.560247,38.0393411 L213.560247,41.9795697 L216.298025,38.0393411 L218.677284,38.0393411 L215.605432,42.0419408 L219.022222,46.6790991 L216.477284,46.6790991 Z" id="Fill-69" fill="#0E3667"></path>
                </g>
            </g>
        </g>
    </g>
</svg>